<svg width="33.316406" height="33.333374" viewBox="0 0 33.3164 33.3334" fill="none" xmlns="http://www.w3.org/2000/svg" xmlns:xlink="http://www.w3.org/1999/xlink">
	<desc>
			Created with Pixso.
	</desc>
	<defs/>
	<path id="Vector" d="M23.65 0L9.68 0C3.61 0 0 3.61 0 9.68L0 23.63C0 29.71 3.61 33.33 9.68 33.33L23.63 33.33C29.7 33.33 33.31 29.71 33.31 23.65L33.31 9.68C33.33 3.61 29.71 0 23.65 0ZM15.83 25.41C15.83 26.01 15.23 26.41 14.68 26.18C12.66 25.31 10.03 24.51 8.2 24.28L7.88 24.25C6.86 24.11 6.03 23.16 6.03 22.13L6.03 9.3C6.03 8.01 7.06 7.06 8.33 7.16C10.41 7.33 13.5 8.33 15.43 9.43C15.7 9.58 15.83 9.86 15.83 10.14L15.83 25.41ZM27.29 22.11C27.29 23.15 26.46 24.1 25.45 24.23L25.09 24.26C23.28 24.51 20.66 25.3 18.65 26.15C18.09 26.38 17.5 25.98 17.5 25.38L17.5 10.13C17.5 9.83 17.65 9.55 17.91 9.4C19.84 8.31 22.86 7.34 24.91 7.16L24.98 7.16C26.26 7.16 27.29 8.19 27.29 9.48L27.29 22.11Z" fill="#546FFF" fill-opacity="1.000000" fill-rule="nonzero"/>
</svg>
