<svg width="24.000000" height="24.000000" viewBox="0 0 24 24" fill="none" xmlns="http://www.w3.org/2000/svg" xmlns:xlink="http://www.w3.org/1999/xlink">
	<desc>
			Created with Pixso.
	</desc>
	<defs/>
	<rect id="vuesax/linear/book" rx="0.000000" width="23.000000" height="23.000000" transform="translate(0.500000 0.500000)" fill="#FFFFFF" fill-opacity="0"/>
	<path id="Vector" d="M22 4.67C22 3.47 21.02 2.58 19.83 2.67L19.77 2.67C17.67 2.86 14.48 3.92 12.7 5.05L12.53 5.16C12.24 5.34 11.76 5.34 11.47 5.16L11.22 5.01C9.43 3.89 6.26 2.84 4.16 2.67C2.96 2.57 2 3.47 2 4.66L2 16.74C2 17.7 2.78 18.6 3.73 18.71L4.03 18.76C6.19 19.04 9.55 20.15 11.47 21.2L11.51 21.22C11.78 21.37 12.21 21.37 12.47 21.22C14.39 20.16 17.75 19.04 19.93 18.76L20.26 18.71C21.22 18.6 22 17.7 22 16.74L22 4.67Z" stroke="#8E92BC" stroke-opacity="1.000000" stroke-width="1.500000" stroke-linejoin="round"/>
	<path id="Vector" d="M12 5.48L12 20.49" stroke="#8E92BC" stroke-opacity="1.000000" stroke-width="1.500000" stroke-linejoin="round" stroke-linecap="round"/>
	<path id="Vector" d="M7.75 8.48L5.5 8.48" stroke="#8E92BC" stroke-opacity="1.000000" stroke-width="1.500000" stroke-linejoin="round" stroke-linecap="round"/>
	<path id="Vector" d="M8.5 11.49L5.5 11.49" stroke="#8E92BC" stroke-opacity="1.000000" stroke-width="1.500000" stroke-linejoin="round" stroke-linecap="round"/>
	<g opacity="0.000000"/>
</svg>
