<svg width="24.000000" height="24.000000" viewBox="0 0 24 24" fill="none" xmlns="http://www.w3.org/2000/svg" xmlns:xlink="http://www.w3.org/1999/xlink">
	<desc>
			Created with Pixso.
	</desc>
	<defs/>
	<path id="Vector" d="M19 10C21 10 22 9 22 7L22 5C22 3 21 2 19 2L17 2C15 2 14 3 14 5L14 7C14 9 15 10 17 10L19 10Z" stroke="#141522" stroke-opacity="1.000000" stroke-width="1.500000" stroke-linejoin="round"/>
	<path id="Vector" d="M7 22C9 22 10 21 10 19L10 17C10 15 9 14 7 14L5 14C3 14 2 15 2 17L2 19C2 21 3 22 5 22L7 22Z" stroke="#141522" stroke-opacity="1.000000" stroke-width="1.500000" stroke-linejoin="round"/>
	<path id="Vector" d="M6 10C3.79 10 2 8.2 2 6C2 3.79 3.79 2 6 2C8.2 2 10 3.79 10 6C10 8.2 8.2 10 6 10Z" stroke="#141522" stroke-opacity="1.000000" stroke-width="1.500000" stroke-linejoin="round"/>
	<path id="Vector" d="M18 22C15.79 22 14 20.2 14 18C14 15.79 15.79 14 18 14C20.2 14 22 15.79 22 18C22 20.2 20.2 22 18 22Z" stroke="#141522" stroke-opacity="1.000000" stroke-width="1.500000" stroke-linejoin="round"/>
	<g opacity="0.000000"/>
</svg>
