<svg width="24.000000" height="24.000000" viewBox="0 0 24 24" fill="none" xmlns="http://www.w3.org/2000/svg" xmlns:xlink="http://www.w3.org/1999/xlink">
	<desc>
			Created with Pixso.
	</desc>
	<defs/>
	<rect id="vuesax/linear/user-octagon" rx="0.000000" width="23.000000" height="23.000000" transform="translate(0.500000 0.500000)" fill="#FFFFFF" fill-opacity="0"/>
	<path id="Vector" d="M21.08 15.42C21.08 16.54 20.48 17.58 19.51 18.15L13.57 21.58C12.6 22.14 11.4 22.14 10.42 21.58L4.47 18.15C3.51 17.59 2.91 16.54 2.91 15.42L2.91 8.58C2.91 7.46 3.51 6.41 4.47 5.85L10.42 2.42C11.39 1.85 12.59 1.85 13.57 2.42L19.51 5.85C20.48 6.41 21.08 7.45 21.08 8.58L21.08 15.42Z" stroke="#8E92BC" stroke-opacity="1.000000" stroke-width="1.500000" stroke-linejoin="round"/>
	<path id="Vector" d="M12 11C10.71 11 9.67 9.95 9.67 8.66C9.67 7.38 10.71 6.34 12 6.34C13.28 6.34 14.33 7.38 14.33 8.66C14.33 9.95 13.28 11 12 11Z" stroke="#8E92BC" stroke-opacity="1.000000" stroke-width="1.500000" stroke-linejoin="round"/>
	<path id="Vector" d="M16 16.66C16 14.86 14.21 13.4 12 13.4C9.79 13.4 8 14.86 8 16.66" stroke="#8E92BC" stroke-opacity="1.000000" stroke-width="1.500000" stroke-linejoin="round" stroke-linecap="round"/>
	<g opacity="0.000000"/>
</svg>
